<?xml version="1.0" encoding="UTF-8"?>
<svg id="_Слой_1" data-name="Слой 1" xmlns="http://www.w3.org/2000/svg" viewBox="0 0 123.5449981689 26.0449008942">
  <defs>
    <style>
      .cls-1, .cls-2 {
        stroke-width: 0px;
      }

      .cls-2 {
        fill-rule: evenodd;
      }
    </style>
  </defs>
  <path class="cls-1" d="M123.5449981689,19.160200119h-2.3880004883v-9.3311004639c0-.7226495743-.2589950562-1.3378896713-.7760009766-1.8456997871-.5079956055-.5175800323-1.1229934692-.7763700485-1.845993042-.7763700485-.7130050659,0-1.3280029297.2587900162-1.8460006714.7763700485-.5070037842.5078101158-.7610015869,1.1230502129-.7610015869,1.8456997871v9.3311004639h-2.3730010986v-9.3311004639c0-.7226495743-.2590026855-1.3378896713-.7770004272-1.8456997871-.5069961548-.5175800323-1.1230010986-.7763700485-1.8450012207-.7763700485-.7229995728,0-1.3430023193.2587900162-1.861000061.7763700485-.5079956055.5078101158-.7610015869,1.1230502129-.7610015869,1.8456997871v9.3311004639h-2.3729934692V4.8339800835h2.3729934692v.6298899651c.4680023193-.4199199677,1.3420028687-.6298899651,2.6220016479-.6298899651,1.2789993286,0,2.3870010376.4248099327,3.3250045776,1.2744197845l.4829940796.4247999191.4840011597-.4247999191c.9370040894-.8496098518,2.0410003662-1.2744197845,3.310005188-1.2744197845,1.2789993286,0,2.3929977417.4248099327,3.3399963379,1.2744197845.5179977417.4589800835.922996521,1.0107402802,1.216003418,1.6552700996.3029937744.6347703934.453994751,1.3232402802.453994751,2.0654296875v9.3311004639Z"/>
  <path class="cls-1" d="M102.7149963379,19.160200119h-2.3729934692v-1.3770008087c-.108001709.1270008087-.5861053467.3906002045-1.4358062744.7910003662-.8397979736.3906002045-1.7479934692.5860004425-2.7245941162.5860004425-.9765014648,0-1.8896026611-.195400238-2.7392044067-.5860004425-.8398971558-.4004001617-1.5625-.9471988678-2.1679992676-1.6406002045-1.0839996338-1.2206993103-1.6259994507-2.6562995911-1.6259994507-4.306599617v-7.7637200356h2.3731002808v7.7637200356c0,1.1424999237.4053039551,2.1240005493,1.2157974243,2.9442996979.8203048706.810500145,1.8018035889,1.2158002853,2.9443054199,1.2158002853.6152954102,0,1.1913986206-.1220989227,1.7285995483-.3661994934.5371017456-.253900528.9959945679-.6006002426,1.3768997192-1.0399999619.7030944824-.7813005447,1.054901123-1.699300766,1.054901123-2.753900528v-7.7637200356h2.3729934692v14.2969202995Z"/>
  <path class="cls-1" d="M86.3378982544,19.160200119h-2.3731002808V4.8339800835h2.3731002808v14.3262200356ZM85.1513977051,2.9589800835c-.410194397,0-.7617950439-.141600132-1.0546951294-.4248001575-.283203125-.2929699421-.4248046875-.6445299387-.4248046875-1.0546898842,0-.4101500511.1416015625-.7568340302.4248046875-1.0400370359.2929000854-.2929690033.6445007324-.4394530058,1.0546951294-.4394530058.4101028442,0,.7568054199.1464840025,1.0400009155.4394530058.2929992676.2832030058.4394989014.6298869848.4394989014,1.0400370359,0,.4101599455-.1464996338.7617199421-.4394989014,1.0546898842-.2831954956.2832000256-.6298980713.4248001575-1.0400009155.4248001575Z"/>
  <path class="cls-1" d="M73.5352020264,19.160200119h-2.3731002808V4.8339800835h2.3731002808v1.3769598007c.1170959473-.1269598007.5956954956-.3857398033,1.4355010986-.7763700485.8495941162-.4003896713,1.7626953125-.6005897522,2.7392959595-.6005897522,1.4160003662,0,2.8172988892.5029296875,4.2041015625,1.5087900162l-1.6993026733,1.6992201805c-.8496017456-.5566401482-1.6845016479-.8349604607-2.5047988892-.8349604607-.6152954102,0-1.1913986206.126950264-1.7285995483.3808603287-.5371017456.2441396713-1.0009002686.5859398842-1.3916015625,1.0253901482-.7030944824.7910194397-1.0545959473,1.7138195038-1.0545959473,2.7685194016v7.7784004211Z"/>
  <path class="cls-1" d="M49.5116996765,19.160200119h-2.3730010986v-1.3770008087c-.1074981689.1270008087-.5859985352.3906002045-1.4356002808.7910003662-.8397979736.3906002045-1.7479972839.5860004425-2.7245979309.5860004425-.9765014648,0-1.8895988464-.195400238-2.739200592-.5860004425-.8399009705-.4004001617-1.5625-.9471988678-2.1679992676-1.6406002045-1.0839996338-1.2206993103-1.6259994507-2.6562995911-1.6259994507-4.306599617v-7.7637200356h2.3731002808v7.7637200356c0,1.1424999237.4051971436,2.1240005493,1.2157974243,2.9442996979.8203010559.810500145,1.801700592,1.2158002853,2.9443016052,1.2158002853.6152992249,0,1.1913986206-.1220989227,1.7285003662-.3661994934.5370979309-.253900528.9960975647-.6006002426,1.3769989014-1.0399999619.7031021118-.7813005447,1.0546989441-1.699300766,1.0546989441-2.753900528v-7.7637200356h2.3730010986v14.2969202995Z"/>
  <path class="cls-1" d="M33.164100647,26.0449008942h-2.3731002808v-8.5254001617c-.1758003235.2245998383-.7616996765.5859985352-1.7578010559,1.0839996338-.996099472.4981002808-2.0751991272.7470989227-3.2372989655.7470989227-1.3574008942,0-2.5928001404-.3319988251-3.7061004639-.996099472-1.113199234-.664100647-2.0018997192-1.5527000427-2.6660003662-2.6659994125-.6639995575-1.1133003235-.996099472-2.3487005234-.996099472-3.7061004639s.3320999146-2.5927495956.996099472-3.706029892c.664100647-1.1132798195,1.5528011322-2.0019602776,2.6660003662-2.6660199165,1.1133003235-.6640601158,2.3486995697-.9960899353,3.7061004639-.9960899353,1.2792987823,0,2.4512004852.2978496552,3.5156002045.8935499191,1.0741996765.5957098007,1.948299408,1.4013700485,2.6220989227,2.4169898033.6737995148,1.0058603287,1.0742015839,2.1387004852,1.2012004852,3.3984003067.0195007324.2734994888.0293006897,5.1807003021.0293006897,14.7217006683ZM25.7959003448,16.9775009155c.9179992676,0,1.7528991699-.2246017456,2.5048999786-.6738014221.7616996765-.4491996765,1.3671989441-1.0497999191,1.816400528-1.8016996384.4491996765-.7617998123.6737995148-1.6015996933.6737995148-2.5195999146,0-.9179000854-.2245998383-1.7529001236-.6737995148-2.5048599243-.4492015839-.7617197037-1.0547008514-1.367190361-1.816400528-1.8164100647-.7520008087-.4492201805-1.5869007111-.6738300323-2.5048999786-.6738300323-.9180011749,0-1.7578010559.2246098518-2.5195007324.6738300323-.7519989014.4492197037-1.3526000977,1.054690361-1.8017997742,1.8164100647-.4491996765.7519598007-.6737995148,1.5869598389-.6737995148,2.5048599243,0,.9180002213.2245998383,1.7578001022.6737995148,2.5195999146.4491996765.7518997192,1.0498008728,1.3524999619,1.8017997742,1.8016996384.7616996765.4491996765,1.6014995575.6738014221,2.5195007324.6738014221Z"/>
  <path class="cls-2" d="M14.7362003326,12.0682001114v-.0001001358c0-4.0692901611-3.2988004684-7.3681001663-7.3681001663-7.3681001663C3.2988100052,4.6999998093,0,7.9988098145,0,12.0680999756c0,4.0692996979,3.2988100052,7.3680992126,7.3681001663,7.3680992126,1.9355401993,0,3.6968002319-.7462997437,5.0115995407-1.9668998718l-.0163993835,1.776599884h2.373000145v-7.1776990891h-.0001001358ZM7.3681797981,17.0925998688c2.7749199867,0,5.0244202614-2.2495002747,5.0244202614-5.0243997574,0-2.7749404907-2.2495002747-5.0244503021-5.0244202614-5.0244503021s-5.0244398117,2.2495098114-5.0244398117,5.0244503021c0,2.7748994827,2.249519825,5.0243997574,5.0244398117,5.0243997574Z"/>
  <path class="cls-2" d="M67.4362030029,12.0682001114v-.0001001358c0-4.0692901611-3.2988052368-7.3681001663-7.3681030273-7.3681001663-4.0693016052,0-7.3680992126,3.2988100052-7.3680992126,7.3681001663,0,4.0692996979,3.2987976074,7.3680992126,7.3680992126,7.3680992126,1.9356002808,0,3.6968002319-.7462997437,5.0115966797-1.9668998718l-.0163955688,1.776599884h2.3730010986v-7.1776990891h-.0000991821ZM60.0681991577,17.0925998688c2.7749023438,0,5.0243988037-2.2495002747,5.0243988037-5.0243997574,0-2.7749404907-2.24949646-5.0244503021-5.0243988037-5.0244503021-2.7748985291,0-5.0243988037,2.2495098114-5.0243988037,5.0244503021,0,2.7748994827,2.2495002747,5.0243997574,5.0243988037,5.0243997574Z"/>
</svg>