<svg width="1000" height="193" viewBox="0 0 1000 193" fill="none" xmlns="http://www.w3.org/2000/svg">
<g clip-path="url(#clip0_2_16)">
<path d="M966.657 44.8325C988.895 44.8325 999.587 62.5802 999.587 86.315V153.243H982.053V90.3778C982.053 69.8503 977.562 59.8004 960.242 59.8004C939.073 59.8004 926.458 78.6173 926.458 106.415V153.243H908.924V90.3778C908.924 69.8503 904.433 59.8004 887.113 59.8004C865.944 59.8004 853.329 78.6173 853.329 106.415V153.243H835.795V46.9708H853.329V65.1461L850.549 77.1205H855.467C859.743 57.876 870.862 44.8325 893.528 44.8325C912.773 44.8325 923.036 58.0898 925.388 77.1205H928.596C932.872 57.876 943.991 44.8325 966.657 44.8325Z" fill="black"/>
<path d="M752.01 140.413C774.462 140.413 790.285 122.666 790.285 94.2267V46.9708H807.605V153.243H790.285V134.854L793.065 122.666H788.147C783.87 141.91 770.399 155.381 747.306 155.381C723.143 155.381 707.534 141.483 707.534 111.974V46.9708H725.068V109.622C725.068 131.86 733.621 140.413 752.01 140.413Z" fill="black"/>
<path d="M646.715 30.0784C637.948 30.0784 631.319 23.6636 631.319 15.1105C631.319 6.98503 637.948 0.356379 646.715 0.356379C655.268 0.356379 662.11 6.98503 662.11 15.1105C662.11 23.6636 655.268 30.0784 646.715 30.0784ZM611.22 153.243V138.275H641.155V60.0143L619.131 61.9387V46.9708L643.721 44.8325C653.771 43.9772 657.62 49.5367 657.62 57.6622V138.275H687.556V153.243H611.22Z" fill="black"/>
<path d="M521.111 153.243V59.5866C521.111 49.5367 525.815 44.6187 535.865 45.0463L594.882 46.9708V61.9387L538.645 60.0143V153.243H521.111Z" fill="black"/>
<path d="M390.71 123.735C390.71 106.842 400.76 95.2958 425.564 92.7299L467.902 88.6671C466.833 69.2088 456.355 59.5866 437.966 59.5866C422.57 59.5866 408.244 66.4291 408.244 86.5289H391.138C391.138 64.5046 407.816 44.8325 437.966 44.8325C467.688 44.8325 485.436 64.5046 485.436 92.9437V138.275H501.045V153.243H482.228C474.103 153.243 469.612 148.753 469.612 140.841V135.068L472.392 123.949H467.26C463.197 140.2 451.865 155.381 426.205 155.381C395.414 155.381 390.71 134.854 390.71 123.735ZM408.244 121.597C408.244 133.785 415.942 140.413 428.344 140.413C452.506 140.413 467.902 123.735 467.902 101.711L428.557 105.773C415.086 107.056 408.244 111.119 408.244 121.597Z" fill="black"/>
<path d="M309.111 140.413C331.563 140.413 347.386 122.666 347.386 94.2267V46.9708H364.706V153.243H347.386V134.854L350.166 122.666H345.248C340.972 141.91 327.5 155.381 304.407 155.381C280.244 155.381 264.635 141.483 264.635 111.974V46.9708H282.169V109.622C282.169 131.86 290.722 140.413 309.111 140.413Z" fill="black"/>
<path d="M236.336 46.9708V192.16H218.803V137.634L221.796 125.659H216.664C212.174 142.124 198.061 155.381 173.899 155.381C142.894 155.381 123.008 131.646 123.008 100.214C123.008 68.5674 142.894 44.8325 173.899 44.8325C198.061 44.8325 212.174 58.0898 216.664 74.7684H221.796L218.803 62.5802V46.9708H236.336ZM218.803 100.214C218.803 71.7748 200.841 59.8004 178.817 59.8004C156.793 59.8004 140.542 72.2024 140.542 100.214C140.542 128.011 156.793 140.413 178.817 140.413C200.841 140.413 218.803 128.439 218.803 100.214Z" fill="black"/>
<path d="M0.6415 123.735C0.6415 106.842 10.6914 95.2958 35.4954 92.7299L77.8332 88.6671C76.7641 69.2088 66.2865 59.5866 47.8974 59.5866C32.5018 59.5866 18.1753 66.4291 18.1753 86.5289H1.06916C1.06916 64.5046 17.7477 44.8325 47.8974 44.8325C77.6194 44.8325 95.3671 64.5046 95.3671 92.9437V138.275H110.976V153.243H92.1597C84.0342 153.243 79.5438 148.753 79.5438 140.841V135.068L82.3236 123.949H77.1917C73.129 140.2 61.7962 155.381 36.1368 155.381C5.34571 155.381 0.6415 134.854 0.6415 123.735ZM18.1753 121.597C18.1753 133.785 25.8731 140.413 38.2751 140.413C62.4376 140.413 77.8332 123.735 77.8332 101.711L38.4889 105.773C25.0178 107.056 18.1753 111.119 18.1753 121.597Z" fill="black"/>
</g>
<defs>
<clipPath id="clip0_2_16">
<rect width="1000" height="192.445" fill="white"/>
</clipPath>
</defs>
</svg>
