<svg width="1000" height="176" viewBox="0 0 1000 176" fill="none" xmlns="http://www.w3.org/2000/svg">
<path d="M11.1579 93.7544C11.1579 75.7895 22.5965 65.6141 45.4737 63.2281L87.1579 59.2281C86.1754 40.1404 76.3509 30.5965 57.6842 30.5965C49.2632 30.5965 42.2456 32.7018 36.6316 36.9123C31.1579 41.1228 28.4211 47.8597 28.4211 57.1228H11.579C11.579 45.7544 15.7193 36.0702 24 28.0702C32.2807 20.0702 43.5088 16.0702 57.6842 16.0702C72.1404 16.0702 83.5088 20.4211 91.7895 29.1228C100.211 37.8246 104.421 49.2632 104.421 63.4386V108.07H119.789V122.807H101.263C92.9825 122.807 88.8421 118.737 88.8421 110.597V104.912L91.5789 93.9649H86.5263C81.3333 114.597 67.8596 124.912 46.1053 124.912C40.3509 124.912 35.2281 124.211 30.7368 122.807C26.386 121.263 23.0175 119.439 20.6316 117.333C18.2456 115.088 16.2807 112.491 14.7369 109.544C13.193 106.456 12.2106 103.719 11.7895 101.333C11.3685 98.807 11.1579 96.2807 11.1579 93.7544ZM28.4211 91.6491C28.4211 97.5439 30.1754 102.105 33.6842 105.333C37.193 108.561 42.0351 110.175 48.2105 110.175C59.8596 110.175 69.2632 106.597 76.4211 99.4386C83.5789 92.2807 87.1579 83.1579 87.1579 72.0702L48.4211 76.0702C41.5439 76.7719 36.4912 78.3158 33.2632 80.7018C30.0351 82.9474 28.4211 86.5965 28.4211 91.6491ZM226.914 122.807H206.704L169.441 77.3334C167.757 77.7544 166.002 77.9649 164.178 77.9649H156.809V122.807H139.546V18.1755H156.809V62.5965H165.441L192.598 25.9649C196.388 20.7719 201.511 18.1755 207.967 18.1755H224.388V32.9123H207.335L181.651 67.4386L226.914 122.807ZM249.332 122.807V18.1755H287.226C300.981 18.1755 311.367 20 318.384 23.6491C325.542 27.2983 329.121 33.8246 329.121 43.2281C329.121 50.9474 327.086 56.4912 323.016 59.8597C319.086 63.0877 314.384 64.9123 308.911 65.3334V70.386C327.577 70.6667 336.911 78.9474 336.911 95.2281C336.911 113.614 322.946 122.807 295.016 122.807H249.332ZM266.174 61.5439H287.226C296.77 61.5439 303.296 60.7018 306.805 59.0176C310.454 57.193 312.279 52.8421 312.279 45.9649C312.279 40.2105 310.384 36.4211 306.595 34.5965C302.805 32.7719 296.349 31.8597 287.226 31.8597H266.174V61.5439ZM266.174 109.123H295.016C304.139 109.123 310.595 108.14 314.384 106.175C318.174 104.07 320.068 99.7193 320.068 93.1228C320.068 86.1053 318.104 81.4035 314.174 79.0176C310.384 76.4912 303.998 75.2281 295.016 75.2281H266.174V109.123ZM357.375 93.7544C357.375 75.7895 368.814 65.6141 391.691 63.2281L433.375 59.2281C432.393 40.1404 422.568 30.5965 403.902 30.5965C395.481 30.5965 388.463 32.7018 382.849 36.9123C377.375 41.1228 374.639 47.8597 374.639 57.1228H357.796C357.796 45.7544 361.937 36.0702 370.218 28.0702C378.498 20.0702 389.726 16.0702 403.902 16.0702C418.358 16.0702 429.726 20.4211 438.007 29.1228C446.428 37.8246 450.639 49.2632 450.639 63.4386V108.07H466.007V122.807H447.481C439.2 122.807 435.06 118.737 435.06 110.597V104.912L437.796 93.9649H432.744C427.551 114.597 414.077 124.912 392.323 124.912C386.568 124.912 381.446 124.211 376.954 122.807C372.604 121.263 369.235 119.439 366.849 117.333C364.463 115.088 362.498 112.491 360.954 109.544C359.411 106.456 358.428 103.719 358.007 101.333C357.586 98.807 357.375 96.2807 357.375 93.7544ZM374.639 91.6491C374.639 97.5439 376.393 102.105 379.902 105.333C383.411 108.561 388.253 110.175 394.428 110.175C406.077 110.175 415.481 106.597 422.639 99.4386C429.797 92.2807 433.375 83.1579 433.375 72.0702L394.639 76.0702C387.761 76.7719 382.709 78.3158 379.481 80.7018C376.253 82.9474 374.639 86.5965 374.639 91.6491ZM485.763 18.1755H503.026V33.5439L500.289 45.5439H505.132C507.518 36.8421 512.289 29.7544 519.447 24.2807C526.605 18.807 535.939 16.0702 547.447 16.0702C562.325 16.0702 574.325 21.193 583.447 31.4386C592.711 41.6842 597.342 54.7369 597.342 70.5965C597.342 86.3158 592.711 99.2983 583.447 109.544C574.325 119.789 562.325 124.912 547.447 124.912C536.079 124.912 526.746 122.246 519.447 116.912C512.289 111.439 507.518 104.351 505.132 95.6491H500.289L503.026 107.439V161.123H485.763V18.1755ZM503.026 70.5965C503.026 83.7895 506.675 93.6842 513.974 100.281C521.412 106.877 530.886 110.175 542.395 110.175C553.763 110.175 562.886 106.877 569.763 100.281C576.64 93.6842 580.079 83.7895 580.079 70.5965C580.079 57.4035 576.64 47.5088 569.763 40.9123C562.886 34.1755 553.763 30.807 542.395 30.807C530.886 30.807 521.412 34.1053 513.974 40.7018C506.675 47.2983 503.026 57.2632 503.026 70.5965ZM724.342 122.807H707.289V33.1228L710.026 23.2281H705.184L658.658 122.807H623.921V18.1755H641.184V107.649L638.447 117.965H643.289L689.816 18.1755H724.342V122.807ZM834.346 18.1755H853.082L807.609 121.754L789.474 161.053H771.93L790.346 121.754L744.661 18.1755H763.609L796.451 99.6491V107.649H801.504V99.6491L834.346 18.1755ZM875.36 122.807V18.1755H909.886L934.518 117.965H939.36L963.991 18.1755H998.728V122.807H981.465V33.3333L984.412 23.2281H979.36L954.307 122.807H919.781L894.728 23.2281H889.886L892.623 33.3333V122.807H875.36Z" fill="black"/>
</svg>
