<?xml version="1.0" encoding="UTF-8"?>
<svg id="_Слой_1" data-name="Слой 1" xmlns="http://www.w3.org/2000/svg" viewBox="0 0 32 32">
  <defs>
    <style>
      .cls-1 {
        fill: #575fcf;
      }

      .cls-1, .cls-2 {
        stroke-width: 0px;
      }

      .cls-2 {
        fill: #fff;
      }
    </style>
  </defs>
  <rect class="cls-1" width="32" height="32"/>
  <path class="cls-2" d="M8.2272500992,19.5839996338c0-2.7306995392,1.7386703491-4.277299881,5.216050148-4.6399993896l6.3360004425-.6079998016c-.1494007111-2.9013004303-1.6427001953-4.3520002365-4.4800004959-4.3520002365-1.279999733,0-2.3467006683.3199996948-3.1999998093.9600000381-.8320007324.6399993896-1.248000145,1.6639995575-1.248000145,3.0719995499h-2.5600500107c0-1.7279996872.6293296814-3.1999998093,1.8880500793-4.4159994125,1.2585992813-1.2160005569,2.9652996063-1.8240003586,5.1199998856-1.8240003586,2.1972990036,0,3.9252996445.6613302231,5.1839990616,1.984000206,1.2800006866,1.3226995468,1.9200000763,3.061299324,1.9200000763,5.2159996033v6.7840003967h2.3360004425v2.2399997711h-2.8159999847c-1.2586994171,0-1.8880004883-.6187000275-1.8880004883-1.8560009003v-.8639984131l.4160003662-1.6640014648h-.767999649c-.7894001007,3.1360015869-2.8374004364,4.704000473-6.1440000534,4.704000473-.8746995926,0-1.6534004211-.1066989899-2.3359994888-.3199996948-.661400795-.2346992493-1.1734008789-.5119991302-1.5360507965-.8320007324-.3626699448-.341299057-.6613292694-.736000061-.8959999084-1.1840000153-.2346696854-.4692993164-.3839998245-.8852996826-.4479999542-1.2479991913-.0640001297-.3840007782-.0959997177-.767999649-.0959997177-1.1520004272ZM10.8513002396,19.263999939c0,.8959999084.2665996552,1.5893001556.8000001907,2.0799999237.5332994461.4906997681,1.2692995071.736000061,2.2079992294.736000061,1.7706003189,0,3.1999998093-.5440006256,4.2880010605-1.6319999695,1.0879993439-1.0879993439,1.6319999695-2.4746990204,1.6319999695-4.1599998474l-5.8880004883.6079998016c-1.0454006195.1067008972-1.8134002686.3413009644-2.3039999008.704000473-.4907007217.341299057-.736000061.8959999084-.736000061,1.6639995575Z"/>
</svg>