<?xml version="1.0" encoding="UTF-8"?>
<svg id="_Слой_1" data-name="Слой 1" xmlns="http://www.w3.org/2000/svg" viewBox="0 0 131.8950042725 21.4305992126">
  <defs>
    <style>
      .cls-1, .cls-2 {
        stroke-width: 0px;
      }

      .cls-2 {
        fill-rule: evenodd;
      }
    </style>
  </defs>
  <path class="cls-1" d="M131.8950042725,14.5459003448h-2.3880004883V4.5117101669l-4.7610015869,6.4013900757-4.7750015259-6.4013900757v10.0341901779h-2.3730010986V.2490230054h2.1679992676l4.9800033569,6.6943368465,4.9810028076-6.6943368465h2.1679992676v14.2968773395Z"/>
  <path class="cls-1" d="M107.2850036621,21.4305992126c-.918006897,0-1.7920074463-.1659984589-2.6220016479-.4979991913-.8300018311-.3320007324-1.6750030518-.8936004639-2.5340042114-1.6846008301l1.6840057373-1.6844997406c1.0939941406.9961013794,2.2509994507,1.4941005707,3.4720001221,1.4941005707.8789978027,0,1.6799926758-.214799881,2.4029998779-.6445007324.7220001221-.4296989441,1.297996521-1.0058994293,1.7279968262-1.7284984589.4300003052-.7227010727.6449966431-1.5235004425.6449966431-2.4024009705v-1.1426000595c-.1079940796.126999855-.5820007324.3907003403-1.4209976196.7910003662-.8399963379.3906993866-1.7529983521.5859994888-2.7399978638.5859994888-.966003418,0-1.875-.1953001022-2.7239990234-.5859994888-.8500061035-.4003000259-1.5720062256-.9471998215-2.1679992676-1.6406002045-1.09400177-1.220700264-1.6410064697-2.6561899185-1.6410064697-4.3066101074V.2197269946h2.3880004883v7.7636628598c0,1.1523504257.4050064087,2.1338100433,1.216003418,2.9443101883.8099975586.8106002808,1.7870025635,1.2158002853,2.9290008545,1.2158002853.625,0,1.2060012817-.1220006943,1.7439956665-.3662004471.5370025635-.2538995743.9960021973-.595700264,1.3770065308-1.0254001617.6929931641-.8104896545,1.0399932861-1.7333498001,1.0399932861-2.7685098648V.2197269946h2.3730010986l.013999939,14.1357732266c0,.625-.0879974365,1.2402000427-.2630004883,1.845700264-.4789962769,1.5135993958-1.3529968262,2.7635993958-2.6230010986,3.75-1.2689971924.9862995148-2.6949996948,1.4793987274-4.2769927979,1.4793987274Z"/>
  <path class="cls-1" d="M97.9980010986,14.5459003448h-2.3730010986v-1.3770008087c-.1073989868.1270008087-.585899353.3907003403-1.4355010986.7910003662-.8398971558.3907003403-1.7481002808.5860004425-2.7247009277.5860004425-.9765014648,0-1.8895950317-.1953001022-2.7391967773-.5860004425-.8399047852-.4003000259-1.5625-.9471998215-2.1679992676-1.6406002045-1.0839996338-1.2206993103-1.6259994507-2.6561899185-1.6259994507-4.3066101074V.2490230054h2.3731002808v7.7636665851c0,1.1425905228.4052963257,2.1240100861,1.2157974243,2.9443101883.8202972412.8106002808,1.8018035889,1.2158002853,2.9442977905,1.2158002853.6153030396,0,1.1913986206-.1219997406,1.7285995483-.3662004471.5371017456-.2538995743.9961013794-.6005992889,1.3768997192-1.0399999619.7031021118-.7812900543,1.0547027588-1.6992197037,1.0547027588-2.7539100647V.2490230054h2.3730010986v14.2968773395Z"/>
  <path class="cls-1" d="M69.8144989014,21.4305992126h-2.3731002808c0-9.5409994125.009803772-14.448179245.0293045044-14.7216191292.1269989014-1.2597699165.5272979736-2.3925800323,1.2011947632-3.3984401226.6738052368-1.0156199932,1.5429000854-1.8212900162,2.6073989868-2.4169859886,1.0742034912-.5957019627,2.2509994507-.8935539722,3.5303039551-.8935539722,1.3573989868,0,2.5926971436.3320310116,3.7060012817.9960939884,1.1132965088.6640560627,2.0019989014,1.5527260303,2.6660003662,2.6660161018.664100647,1.1132800579.99609375,2.3486297131.99609375,3.7060496807,0,1.3574204445-.331993103,2.5927500725-.99609375,3.7060399055-.6640014648,1.1133003235-1.5527038574,2.001999855-2.6660003662,2.6660003662-1.1133041382.6640996933-2.3486022949.9961004257-3.7060012817.9961004257-1.1621017456,0-2.2412033081-.2490005493-3.2372970581-.7471008301-.9864044189-.4979991913-1.572303772-.8592996597-1.7578048706-1.083899498v8.5252990723ZM74.8096008301,12.3633003235c.9179000854,0,1.7528991699-.2246007919,2.5048980713-.6739006042.7617034912-.4491996765,1.3671035767-1.0497999191,1.8163986206-1.8016901016.4492034912-.7617397308.6738052368-1.6015796661.6738052368-2.5195498466,0-.9179697037-.2246017456-1.7529296875-.6738052368-2.5048799515-.4492950439-.7617197037-1.0546951294-1.3671898842-1.8163986206-1.8164098263-.7519989014-.4492199421-1.5869979858-.6738300323-2.5048980713-.6738300323-.9179992676,0-1.7577972412.2246100903-2.5195999146.6738300323-.7518997192.4492199421-1.3525009155,1.0546901226-1.8017044067,1.8164098263-.4491958618.751950264-.6737976074,1.5869102478-.6737976074,2.5048799515,0,.9179701805.2246017456,1.7578101158.6737976074,2.5195498466.4492034912.7518901825,1.0498046875,1.3524904251,1.8017044067,1.8016901016.7618026733.4492998123,1.601600647.6739006042,2.5195999146.6739006042Z"/>
  <path class="cls-1" d="M41.557598114,14.5459003448h-8.0712966919V.2490230054h7.1191978455c.6445007324,0,1.2353019714.1562509984,1.7723999023.4687509686.5371017456.3124960065.9619026184.7324159741,1.2744026184,1.2597560287.341796875.5566499233.5126991272,1.1718800068.5126991272,1.8457100391,0,.771479845-.1318016052,1.3378899097-.3955001831,1.6992199421.4199981689.166009903.8886985779.5517501831,1.4062995911,1.1572198868.7616996765.8789100647,1.1426010132,1.9091796875,1.1426010132,3.0908298492,0,1.1815900803-.3809013367,2.2167901993-1.1426010132,3.1054906845-.4394989014.5174999237-.971698761.9277000427-1.596698761,1.2303991318-.625.2930002213-1.2988014221.4395008087-2.0215034485.4395008087ZM40.6054992676,5.009759903c.3222007751,0,.6006011963-.1171898842.8348999023-.3515601158.2344017029-.2343797684.351600647-.512699604.351600647-.8349597454,0-.3320300579-.1171989441-.615240097-.351600647-.8496100903-.2342987061-.2343800068-.5126991272-.3515598774-.8348999023-.3515598774h-4.7460975647v2.3876898289h4.7460975647ZM41.557598114,12.1728000641c.6543006897,0,1.215801239-.2342996597,1.6846008301-.7031002045.4687004089-.4686994553.7031021118-1.0350999832.7031021118-1.6991901398,0-.654299736-.2344017029-1.2158298492-.7031021118-1.6845798492-.4687995911-.46875-1.0303001404-.7031197548-1.6846008301-.7031197548h-5.6981964111v4.7899899483h5.6981964111Z"/>
  <path class="cls-1" d="M31.1571998596,14.5459003448c-1.5918006897,0-2.9296989441-.3222999573-4.0135993958-.9668006897-1.0839996338-.6444997787-1.9483013153-1.5038995743-2.5928001404-2.5780992508-.6445999146-1.083990097-.9717006683-2.1924104691-.9815006256-3.3252205849-.3514995575.1074199677-1.1620998383.1611299515-2.4316005707.1611299515l-.4247989655-.014649868v6.7236404419h-2.3731002808V.2490230054h2.3731002808v5.2001871616h1.5967006683c.8788986206,0,1.6747989655-.2148399353,2.3876991272-.6445302963.7226009369-.4296798706,1.2987995148-1.0058598518,1.7285003662-1.728509903.4296989441-.7226600647.6444988251-1.6650400162.6444988251-2.8271469623h2.3877010345c0,2.0019468814-.5419998169,3.6572269946-1.6259994507,4.9658169299-.5957012177.7128901482-1.2207012177,1.25-1.875,1.6113300323l.0146999359.5566401482c0,.8886694908.214799881,1.6943297386.6444988251,2.4170002937.4297008514.7225894928,1.0059013367,1.298789978,1.7285003662,1.7284898758.722700119.4296998978,1.660200119.6444997787,2.8125.6444997787v2.3731002808Z"/>
  <path class="cls-2" d="M14.7362003326,7.3681797981v-.0000796318C14.7362003326,3.2988100052,11.4373998642,0,7.3681001663,0,3.2988100052,0,0,3.2988100052,0,7.3681001663c0,4.0692996979,3.2988100052,7.3681001663,7.3681001663,7.3681001663,1.9355401993,0,3.6968002319-.7463006973,5.0115995407-1.9668998718l-.0163993835,1.776599884h2.373000145v-7.1777205467h-.0001001358ZM7.3681797981,12.3926000595c2.7749199867,0,5.0244202614-2.2495002747,5.0244202614-5.0244102478,0-2.7749199867-2.2495002747-5.0244398117-5.0244202614-5.0244398117S2.3437399864,4.593269825,2.3437399864,7.3681898117c0,2.7749099731,2.249519825,5.0244102478,5.0244398117,5.0244102478Z"/>
  <path class="cls-2" d="M63.8362007141,7.3681797981v-.0000796318c0-4.0692901611-3.2988014221-7.3681001663-7.3680992126-7.3681001663-4.0693016052,0-7.3681030273,3.2988100052-7.3681030273,7.3681001663,0,4.0692996979,3.2988014221,7.3681001663,7.3681030273,7.3681001663,1.9354972839,0,3.6968002319-.7463006973,5.0115966797-1.9668998718l-.0163993835,1.776599884h2.3730010986v-7.1777205467h-.0000991821ZM56.4682006836,12.3926000595c2.7748985291,0,5.0243988037-2.2495002747,5.0243988037-5.0244102478,0-2.7749199867-2.2495002747-5.0244398117-5.0243988037-5.0244398117-2.7749023438,0-5.0245018005,2.249519825-5.0245018005,5.0244398117,0,2.7749099731,2.2495994568,5.0244102478,5.0245018005,5.0244102478Z"/>
</svg>